<?xml version="1.0" encoding="UTF-8" standalone="no"?>
<!-- Created with Inkscape (http://www.inkscape.org/) -->

<svg
   width="20"
   height="20"
   viewBox="0 0 5.2916665 5.2916666"
   version="1.1"
   id="svg5"
   inkscape:version="1.2.1 (9c6d41e410, 2022-07-14)"
   sodipodi:docname="fechar.svg"
   xmlns:inkscape="http://www.inkscape.org/namespaces/inkscape"
   xmlns:sodipodi="http://sodipodi.sourceforge.net/DTD/sodipodi-0.dtd"
   xmlns="http://www.w3.org/2000/svg"
   xmlns:svg="http://www.w3.org/2000/svg">
  <sodipodi:namedview
     id="namedview7"
     pagecolor="#ffffff"
     bordercolor="#000000"
     borderopacity="0.25"
     inkscape:showpageshadow="2"
     inkscape:pageopacity="0.0"
     inkscape:pagecheckerboard="0"
     inkscape:deskcolor="#d1d1d1"
     inkscape:document-units="mm"
     showgrid="false"
     inkscape:zoom="23.860606"
     inkscape:cx="6.2236475"
     inkscape:cy="8.7172975"
     inkscape:window-width="1920"
     inkscape:window-height="1017"
     inkscape:window-x="-8"
     inkscape:window-y="-8"
     inkscape:window-maximized="1"
     inkscape:current-layer="layer1" />
  <defs
     id="defs2" />
  <g
     inkscape:label="Layer 1"
     inkscape:groupmode="layer"
     id="layer1">
    <rect
       style="fill:#ff0000;stroke-width:0"
       id="rect404"
       width="5.2916665"
       height="5.2916665"
       x="0"
       y="0"
       rx="0.52916664" />
    <path
       id="rect286"
       style="fill:#ffffff;stroke-width:0"
       d="m 1.6363698,1.3229632 c -0.026567,0 -0.05328,0.010131 -0.073636,0.030488 L 1.3534513,1.5627334 c -0.040713,0.040713 -0.040713,0.1063013 0,0.1470143 L 2.2895369,2.6458333 1.3534513,3.581919 c -0.040713,0.040713 -0.040713,0.1063012 0,0.1470142 l 0.2092821,0.2092821 c 0.040713,0.040713 0.1063014,0.040713 0.1470144,0 L 2.6458334,3.0021298 3.5819191,3.9382153 c 0.040713,0.040713 0.1063012,0.040713 0.1470142,0 L 3.9382154,3.7289332 c 0.040713,-0.040713 0.040713,-0.1063012 0,-0.1470142 L 3.0021299,2.6458333 3.9382154,1.7097477 c 0.040713,-0.040713 0.040713,-0.1063013 0,-0.1470143 L 3.7289333,1.3534512 c -0.040713,-0.040713 -0.1063012,-0.040713 -0.1470142,0 L 2.6458334,2.2895369 1.7097478,1.3534512 c -0.020356,-0.020357 -0.046812,-0.030488 -0.073378,-0.030488 z" />
  </g>
</svg>
